<svg width="14" height="14" viewBox="0 0 14 14" fill="none" xmlns="http://www.w3.org/2000/svg">
<g id="Group">
<path id="Vector" d="M4.37165 6.49957L4.37115 6.49983C4.37065 6.50035 4.37065 6.50087 4.37065 6.50087C4.33627 6.53711 4.31042 6.58091 4.28934 6.62757C4.28357 6.6393 4.27955 6.64999 4.27503 6.66224C4.27052 6.67424 4.26424 6.68519 4.26073 6.69796L3.2549 10.5632C3.21525 10.7165 3.25741 10.8799 3.36507 10.9923C3.44638 11.0765 3.5553 11.1221 3.66647 11.1221C3.70361 11.1221 3.7415 11.1172 3.77764 11.1065L7.35525 10.102C7.37884 10.1062 7.40142 10.1163 7.42526 10.1163C7.53468 10.1163 7.64385 10.073 7.72716 9.98649L13.5207 3.96734C13.8294 3.64641 14 3.21964 14 2.76575C14 2.31186 13.8294 1.88509 13.5207 1.56416L12.4782 0.481196C11.8606 -0.16092 10.7818 -0.159877 10.1652 0.481196L4.37165 6.49957ZM10.769 1.10767C11.0636 0.80082 11.5796 0.80108 11.8752 1.10793L12.9177 2.19064C13.0657 2.34419 13.147 2.54832 13.147 2.76575C13.147 2.98318 13.0657 3.18705 12.9177 3.34087L12.604 3.66675L10.4548 1.43433L10.769 1.10767ZM9.85149 2.06107L12.0007 4.29348L7.42577 9.04639L5.27609 6.81371L9.85149 2.06107ZM5.02489 7.8057L6.56499 9.4059L4.27252 10.0501L4.89213 7.6683L5.02489 7.8057Z" fill="black"/>
<path id="Vector_2" d="M10.3983 4.35129L9.79492 3.72461L7.11811 6.50621L7.72153 7.13289L10.3983 4.35129Z" fill="black"/>
<path id="Vector_3" d="M0.426372 13.9999H11.905C12.8075 13.9999 13.5407 13.2373 13.5407 12.3001V6.29918H12.6878V12.3003C12.6878 12.749 12.3369 13.1135 11.905 13.1135H0.853245V1.35466H8.13394V0.468262H0.426372C0.190726 0.468262 0 0.666658 0 0.91146V13.5564C0 13.8012 0.190475 13.9999 0.426372 13.9999Z" fill="black"/>
</g>
</svg>
