<svg width="14" height="14" viewBox="0 0 14 14" fill="none" xmlns="http://www.w3.org/2000/svg">
<g id="checkedmark_114531 1" clip-path="url(#clip0_54_1030)">
<g id="Group">
<g id="Group_2">
<g id="Group_3">
<path id="Vector" d="M5.67719 9.69779L3.62876 7.64961C3.49981 7.52066 3.49981 7.31155 3.62876 7.18257C3.75785 7.05346 3.96687 7.05346 4.09582 7.18257L5.67719 8.76381L9.90459 4.53627C10.0337 4.40718 10.2427 4.40718 10.3717 4.53627C10.5008 4.66522 10.5008 4.87438 10.3717 5.00333L5.67719 9.69779Z" fill="black"/>
<path id="Vector_2" d="M7.00078 14V13.6697L7.00027 14C3.14056 14 0.000274512 10.8599 0 7.00014C0 3.14029 3.14029 0 7 0C10.8599 0 14 3.14029 14 7C14.0001 10.8599 10.8602 14 7.00078 14ZM7 0.660614C3.50443 0.660614 0.660614 3.50443 0.660614 7C0.660889 10.4954 3.50482 13.3392 7.00027 13.3392H7.00078C10.496 13.3392 13.3395 10.4954 13.3395 7C13.3395 3.50443 10.4956 0.660614 7 0.660614Z" fill="black"/>
</g>
</g>
</g>
</g>
<defs>
<clipPath id="clip0_54_1030">
<rect width="14" height="14" fill="white"/>
</clipPath>
</defs>
</svg>
